<svg xmlns="http://www.w3.org/2000/svg" fill-rule="evenodd" stroke-linejoin="round" stroke-miterlimit="2" clip-rule="evenodd" viewBox="0 0 512 512">
    <path fill="#ff1493" fill-rule="nonzero" d="M0 0h512v512H0z" />
    <path fill="#fff" fill-rule="nonzero" d="M468.815 257.42h-42.602c0-93.724-76.684-170.408-170.408-170.408-31.242 0-62.483 8.52-88.045 22.721l17.041 28.401c19.881-11.36 45.442-19.881 68.164-19.881 76.683 0 139.166 62.483 139.166 139.167h-39.762c-5.68 0-8.52 5.68-5.68 11.361l56.803 93.724c2.84 5.68 8.52 5.68 11.36 0l56.803-93.724c8.521-5.681 2.84-11.361-2.84-11.361zM323.968 376.706c-19.881 11.36-42.602 17.041-68.163 17.041-76.684 0-139.167-62.483-139.167-139.167H156.4c5.68 0 8.52-5.68 5.68-11.361l-56.803-93.724c-2.84-5.68-8.52-5.68-11.36 0l-56.803 93.724c-2.84 5.681 0 11.361 5.68 11.361h42.603c0 93.724 76.683 170.408 170.408 170.408 31.241 0 59.643-8.52 85.204-22.721l-17.041-25.561z" />
    <path fill="#fff" fill-rule="nonzero" d="M289.376 280.778c-1.955.569-3.518.791-5.557.791-16.726 0-41.285-58.152-41.285-77.5 0-7.125 1.689-9.5 4.091-11.527-20.469 2.361-45.042 9.847-52.888 19.333-1.704 2.389-2.737 6.111-2.737 10.875 0 30.194 32.42 98.75 55.289 98.75 10.57 0 28.413-17.292 43.073-40.722M278.695 190.5c21.153 0 42.305 3.403 42.305 15.278 0 24.097-15.358 53.291-23.191 53.291-13.99 0-31.4-38.694-31.4-58.055 0-8.82 3.42-10.514 12.286-10.514" />
</svg>
